<svg width="1600" height="1200" viewBox="0 0 1600 1200" fill="none" xmlns="http://www.w3.org/2000/svg">
  <defs>
    <linearGradient id="sky" x1="800" y1="0" x2="800" y2="1200" gradientUnits="userSpaceOnUse">
      <stop stop-color="#F5E4C6"/>
      <stop offset="0.52" stop-color="#F1C990"/>
      <stop offset="1" stop-color="#CDA16D"/>
    </linearGradient>
    <linearGradient id="wall" x1="286" y1="202" x2="286" y2="894" gradientUnits="userSpaceOnUse">
      <stop stop-color="#D78D5A"/>
      <stop offset="1" stop-color="#A95B33"/>
    </linearGradient>
    <linearGradient id="glass" x1="1078" y1="230" x2="1218" y2="836" gradientUnits="userSpaceOnUse">
      <stop stop-color="#A9B9BF"/>
      <stop offset="1" stop-color="#55656C"/>
    </linearGradient>
    <linearGradient id="drive" x1="808" y1="856" x2="808" y2="1200" gradientUnits="userSpaceOnUse">
      <stop stop-color="#EAD7BE"/>
      <stop offset="1" stop-color="#B08B66"/>
    </linearGradient>
    <filter id="grain" x="-20%" y="-20%" width="140%" height="140%">
      <feTurbulence type="fractalNoise" baseFrequency="0.9" numOctaves="2" stitchTiles="stitch"/>
      <feColorMatrix type="saturate" values="0.18"/>
      <feComponentTransfer>
        <feFuncA type="table" tableValues="0 0.11"/>
      </feComponentTransfer>
    </filter>
    <filter id="softShadow" x="180" y="168" width="1240" height="860" filterUnits="userSpaceOnUse" color-interpolation-filters="sRGB">
      <feDropShadow dx="0" dy="28" stdDeviation="28" flood-color="#5B301C" flood-opacity="0.16"/>
    </filter>
  </defs>

  <rect width="1600" height="1200" fill="url(#sky)"/>
  <rect y="846" width="1600" height="354" fill="url(#drive)"/>
  <path d="M0 962C160 916 284 898 442 912C603 927 752 1011 918 1007C1092 1002 1239 908 1402 906C1492 905 1556 928 1600 950V1200H0V962Z" fill="#C7A178" fill-opacity="0.48"/>

  <g filter="url(#softShadow)">
    <rect x="218" y="220" width="1164" height="642" rx="30" fill="#F6E6CE"/>
    <rect x="218" y="220" width="604" height="642" rx="30" fill="url(#wall)"/>
    <rect x="822" y="220" width="560" height="642" rx="30" fill="#7F6A57"/>
  </g>

  <rect x="212" y="184" width="1174" height="48" rx="24" fill="#6E4B33"/>
  <rect x="980" y="254" width="274" height="426" rx="12" fill="url(#glass)"/>
  <rect x="1014" y="286" width="206" height="44" rx="12" fill="#BBC8CC" fill-opacity="0.66"/>
  <rect x="1014" y="352" width="164" height="16" rx="8" fill="#D5E1E4" fill-opacity="0.42"/>
  <rect x="1014" y="386" width="194" height="16" rx="8" fill="#D5E1E4" fill-opacity="0.36"/>
  <rect x="1014" y="698" width="212" height="124" rx="18" fill="#413125" fill-opacity="0.52"/>

  <rect x="276" y="284" width="486" height="510" rx="20" fill="#CC7A44"/>
  <g opacity="0.28">
    <path d="M278 336H760" stroke="#F2CFB0" stroke-width="6"/>
    <path d="M278 402H760" stroke="#F2CFB0" stroke-width="6"/>
    <path d="M278 468H760" stroke="#F2CFB0" stroke-width="6"/>
    <path d="M278 534H760" stroke="#F2CFB0" stroke-width="6"/>
    <path d="M278 600H760" stroke="#F2CFB0" stroke-width="6"/>
    <path d="M278 666H760" stroke="#F2CFB0" stroke-width="6"/>
    <path d="M278 732H760" stroke="#F2CFB0" stroke-width="6"/>
    <path d="M338 284V794" stroke="#F2CFB0" stroke-width="6"/>
    <path d="M428 284V794" stroke="#F2CFB0" stroke-width="6"/>
    <path d="M518 284V794" stroke="#F2CFB0" stroke-width="6"/>
    <path d="M608 284V794" stroke="#F2CFB0" stroke-width="6"/>
    <path d="M698 284V794" stroke="#F2CFB0" stroke-width="6"/>
  </g>

  <path d="M742 220H822V862H742L628 544L742 220Z" fill="#8F4C2C"/>
  <path d="M738 220H822V862H738L584 542L738 220Z" fill="#643522" fill-opacity="0.6"/>
  <rect x="914" y="716" width="82" height="146" fill="#4E3A2D"/>
  <rect x="978" y="716" width="82" height="146" fill="#5B4638"/>
  <rect x="1060" y="716" width="82" height="146" fill="#6A5444"/>
  <rect x="1142" y="716" width="82" height="146" fill="#7C6653"/>
  <rect x="1224" y="716" width="82" height="146" fill="#8A735E"/>

  <path d="M0 914L1600 902V1200H0V914Z" fill="#D1B18C" fill-opacity="0.34"/>
  <path d="M148 1020C324 978 524 964 730 976C888 986 1032 1030 1220 1022C1372 1016 1496 982 1600 942V1200H148V1020Z" fill="#9B7858" fill-opacity="0.18"/>

  <g filter="url(#grain)">
    <rect width="1600" height="1200" fill="#000" fill-opacity="0.06"/>
  </g>
</svg>
